<svg xmlns="http://www.w3.org/2000/svg" xmlns:xlink="http://www.w3.org/1999/xlink" viewBox="0 0 145.84 49.39"><defs><style>.cls-1{fill:#362277;}.cls-2{fill:url(#linear-gradient);}</style><linearGradient id="linear-gradient" x1="4.13" y1="11.58" x2="40.12" y2="31.65" gradientUnits="userSpaceOnUse"><stop offset="0" stop-color="#e70aab"/><stop offset="1" stop-color="#0061ff"/></linearGradient></defs><g id="Layer_2" data-name="Layer 2"><g id="Layer_1-2" data-name="Layer 1"><path class="cls-1" d="M63,29a3.46,3.46,0,0,1-1.48-2.9,2.12,2.12,0,0,1,0-.3.46.46,0,0,0,0-.1h2.91v.2a1.6,1.6,0,0,0,.83,1.43,4.15,4.15,0,0,0,2,.46,4.35,4.35,0,0,0,1.86-.36A1.16,1.16,0,0,0,70,26.34a1.17,1.17,0,0,0-.42-.94,3.1,3.1,0,0,0-1.05-.57c-.41-.14-1-.3-1.76-.48a21,21,0,0,1-2.52-.75,4.17,4.17,0,0,1-1.68-1.16,3.08,3.08,0,0,1-.69-2.09,3.25,3.25,0,0,1,1.54-2.88,7.11,7.11,0,0,1,4-1,7.57,7.57,0,0,1,2.7.45,4.08,4.08,0,0,1,1.85,1.25A2.85,2.85,0,0,1,72.59,20l0,.55H69.66v-.1A1.4,1.4,0,0,0,69,19.24a3.21,3.21,0,0,0-1.83-.43,3.45,3.45,0,0,0-1.76.36,1.06,1.06,0,0,0-.6.93,1.1,1.1,0,0,0,.74,1,10.51,10.51,0,0,0,2.24.66,19.55,19.55,0,0,1,2.65.76,4.54,4.54,0,0,1,1.75,1.2A3.17,3.17,0,0,1,73,26a3.47,3.47,0,0,1-1.56,3.16,7.76,7.76,0,0,1-4.21,1A6.77,6.77,0,0,1,63,29Z"/><path class="cls-1" d="M75.1,16.75h2.46l.25,1.74H78A4.19,4.19,0,0,1,79.65,17,5,5,0,0,1,82,16.45a4.67,4.67,0,0,1,3.85,1.69,8.15,8.15,0,0,1,1.36,5.17,8.07,8.07,0,0,1-1.36,5.09,4.44,4.44,0,0,1-3.65,1.71,4.35,4.35,0,0,1-3.93-1.81h-.15v5.81h-3Zm8.3,9.82a5.5,5.5,0,0,0,.69-3.12v-.32A5.55,5.55,0,0,0,83.4,20a2.68,2.68,0,0,0-2.34-1,2.57,2.57,0,0,0-2.26,1,5.43,5.43,0,0,0-.72,3.08v.3a5.43,5.43,0,0,0,.72,3.08,2.57,2.57,0,0,0,2.26,1A2.66,2.66,0,0,0,83.4,26.57Z"/><path class="cls-1" d="M90,28.45q-1.55-1.66-1.54-5.17c0-2.33.52-4.06,1.55-5.17a6.15,6.15,0,0,1,4.71-1.66,5.47,5.47,0,0,1,4.31,1.61q1.43,1.62,1.43,5.05V24h-9a4.7,4.7,0,0,0,.83,2.84,3,3,0,0,0,2.42.91,3.11,3.11,0,0,0,2-.63,2.3,2.3,0,0,0,.77-1.88h2.93a4.31,4.31,0,0,1-1.59,3.64,6.61,6.61,0,0,1-4.15,1.23A6.13,6.13,0,0,1,90,28.45Zm7.35-6.56c0-2.05-.88-3.08-2.63-3.08a3,3,0,0,0-2.25.76,3.77,3.77,0,0,0-.93,2.32Z"/><path class="cls-1" d="M103.29,28.45q-1.49-1.66-1.49-5.17c0-2.33.5-4.06,1.51-5.17a7,7,0,0,1,8.65-.34,5,5,0,0,1,1.44,3.87h-3a3.09,3.09,0,0,0-.62-2.09,2.48,2.48,0,0,0-1.94-.69,2.55,2.55,0,0,0-2.26,1.05,5.86,5.86,0,0,0-.72,3.25v.29a5.61,5.61,0,0,0,.74,3.22,2.68,2.68,0,0,0,2.37,1,2.47,2.47,0,0,0,1.92-.72,3,3,0,0,0,.66-2.06h2.88A5,5,0,0,1,112,28.74a5.7,5.7,0,0,1-4.09,1.37A5.84,5.84,0,0,1,103.29,28.45Z"/><path class="cls-1" d="M116.37,29.18a3.64,3.64,0,0,1-.73-2.32V19.18h-1.59V16.75h1.64l.54-3.65h2.39v3.65h2.23v2.43h-2.23v7.38c0,.74.35,1.12,1.07,1.12h1.16v2a7.33,7.33,0,0,1-1,.28,5.58,5.58,0,0,1-1.09.12A2.88,2.88,0,0,1,116.37,29.18Z"/><path class="cls-1" d="M62.26,36h2.46L65,37.77h.17a5,5,0,0,1,1.78-1.51,5.35,5.35,0,0,1,2.42-.53,4.27,4.27,0,0,1,3.1,1.08,4.61,4.61,0,0,1,1.12,3.46v8.82h-3V40.8a2.12,2.12,0,0,0-2.41-2.49,2.76,2.76,0,0,0-2.09.9,3.18,3.18,0,0,0-.84,2.28v7.6h-3Z"/><path class="cls-1" d="M76.19,47.73c-1-1.11-1.54-2.84-1.54-5.17s.52-4.06,1.56-5.17a6.12,6.12,0,0,1,4.7-1.66,5.47,5.47,0,0,1,4.31,1.61q1.43,1.62,1.43,5v.89h-9a4.63,4.63,0,0,0,.84,2.84,3,3,0,0,0,2.42.91,3.06,3.06,0,0,0,2-.63,2.31,2.31,0,0,0,.77-1.88h2.93a4.31,4.31,0,0,1-1.59,3.64,6.59,6.59,0,0,1-4.15,1.23A6.17,6.17,0,0,1,76.19,47.73Zm7.36-6.56c0-2.06-.88-3.08-2.64-3.08a3,3,0,0,0-2.24.76,3.74,3.74,0,0,0-.94,2.32Z"/><path class="cls-1" d="M89.2,48.46a3.64,3.64,0,0,1-.74-2.32V38.46H86.87V36h1.64l.55-3.65h2.38V36h2.24v2.43H91.44v7.38c0,.74.36,1.12,1.07,1.12h1.17v2a7.79,7.79,0,0,1-1,.28,5.59,5.59,0,0,1-1.1.12A2.86,2.86,0,0,1,89.2,48.46Z"/><path class="cls-1" d="M94,36H97l1.62,6.06c.1.34.24.95.42,1.81s.3,1.43.35,1.71h.12c0-.28.15-.77.3-1.49s.3-1.38.45-2L101.75,36H105l1.56,6.11c.15.64.3,1.32.45,2s.25,1.19.3,1.45h.12l.3-1.4c.15-.69.31-1.38.47-2.07L109.73,36h2.85l-3.9,13.06h-3.13l-1.61-6.78q-.18-.68-.36-1.59c-.13-.61-.2-1-.24-1.22h-.12c0,.19-.11.58-.21,1.2s-.22,1.14-.34,1.59L101,49.09H97.88Z"/><path class="cls-1" d="M113.74,47.73c-1.07-1.11-1.6-2.84-1.6-5.17s.53-4.06,1.6-5.17a7.86,7.86,0,0,1,9.66,0q1.6,1.66,1.6,5.17c0,2.33-.53,4.06-1.6,5.17a7.86,7.86,0,0,1-9.66,0Zm7.39-1.81a5.2,5.2,0,0,0,.79-3.19v-.34a5.23,5.23,0,0,0-.79-3.2,3.71,3.71,0,0,0-5.13,0,5.31,5.31,0,0,0-.78,3.2v.34a5.27,5.27,0,0,0,.78,3.19,3.68,3.68,0,0,0,5.13,0Z"/><path class="cls-1" d="M126.17,36h2.46l.27,2.06h.18c.59-1.58,1.57-2.36,2.93-2.36a3.18,3.18,0,0,1,.79.09,2.72,2.72,0,0,1,.45.13v2.81h-.95c-2.1,0-3.15,1.17-3.15,3.53v6.8h-3Z"/><path class="cls-1" d="M134.37,31.13h3V41.64L142.09,36h3.5l-4.39,5.06,4.64,8h-3.43l-3.1-5.81-2,1.89v3.92h-3Z"/><path class="cls-2" d="M21.22,17.68,17.69,8.14A2.62,2.62,0,1,0,13.52,11Zm3.89-.86L27.65,3.05a2.42,2.42,0,0,0,0-.93,2.58,2.58,0,1,0-5.08.93ZM37.45,10a2.62,2.62,0,1,0-4.92-1.82L29,17.68,36.71,11A2.68,2.68,0,0,0,37.45,10ZM25.11,29.74,22.57,43.51a2.7,2.7,0,0,0,0,.94,2.58,2.58,0,1,0,5.08-.94ZM48,13.55a3.33,3.33,0,0,0-4.26-1l-15,7.3,3.54,1.72L45.08,15.3a.6.6,0,0,1,.2-.07c.51.12,1.84,2.78,1.84,8.05s-1.33,7.93-1.84,8a.69.69,0,0,1-.21-.07L6.51,12.53a3.31,3.31,0,0,0-4.26,1c-3,3.73-3,15.73,0,19.46a3.43,3.43,0,0,0,2.69,1.41A3.45,3.45,0,0,0,6.5,34l15-7.3L18,25,5.14,31.26a.6.6,0,0,1-.2.07c-.51-.12-1.84-2.78-1.84-8s1.33-7.93,1.84-8a.61.61,0,0,1,.21.07l9,4.36h0l22,10.68h0L43.71,34A3.32,3.32,0,0,0,48,33C51,29.28,51,17.28,48,13.55ZM29,28.88l3.53,9.54a2.63,2.63,0,1,0,4.18-2.9ZM12.77,36.6a2.62,2.62,0,0,0,4.92,1.82l3.53-9.54-7.7,6.64A2.6,2.6,0,0,0,12.77,36.6Z"/></g></g></svg>